# xmcd CD Database Entry
#
# Track frame offsets:
# 150
# 14242
# 25594
# 37258
# 50775
# 63892
# 74877
# 89031
# 105466
# 118681
# 131043
# 143295
# 156264
# 173151
# 184223
# 198035
# 207559
# 218967
# 232074
# 245451
# 256153
# 265687
# 277583
# 286325
# 295945
# 305477
# 318481
# 331606
#
# Disc length: 4613 seconds
#
# Revision: 1
# Processed by: cddbd v1.4PL0 Copyright (c) Steve Scherf et al.
# Submitted via: tcd 2.0b
#
DISCID=ad12031c
DTITLE=不明了
DYEAR=1900
DGENRE=
TTITLE0=第 1 音轨
TTITLE1=第 2 音轨
TTITLE2=第 3 音轨
TTITLE3=第 4 音轨
TTITLE4=第 5 音轨
TTITLE5=第 6 音轨
TTITLE6=第 7 音轨
TTITLE7=第 8 音轨
TTITLE8=第 9 音轨
TTITLE9=第 10 音轨
TTITLE10=第 11 音轨
TTITLE11=第 12 音轨
TTITLE12=第 13 音轨
TTITLE13=第 14 音轨
TTITLE14=第 15 音轨
TTITLE15=第 16 音轨
TTITLE16=第 17 音轨
TTITLE17=第 18 音轨
TTITLE18=第 19 音轨
TTITLE19=第 20 音轨
TTITLE20=第 21 音轨
TTITLE21=第 22 音轨
TTITLE22=第 23 音轨
TTITLE23=第 24 音轨
TTITLE24=第 25 音轨
TTITLE25=第 26 音轨
TTITLE26=第 27 音轨
TTITLE27=第 28 音轨
EXTD=
EXTT0=
EXTT1=
EXTT2=
EXTT3=
EXTT4=
EXTT5=
EXTT6=
EXTT7=
EXTT8=
EXTT9=
EXTT10=
EXTT11=
EXTT12=
EXTT13=
EXTT14=
EXTT15=
EXTT16=
EXTT17=
EXTT18=
EXTT19=
EXTT20=
EXTT21=
EXTT22=
EXTT23=
EXTT24=
EXTT25=
EXTT26=
EXTT27=
PLAYORDER=
